<svg xmlns="http://www.w3.org/2000/svg" version="1.1" xmlns:xlink="http://www.w3.org/1999/xlink" width="1500" height="57" viewBox="0 0 1500 57"><svg xml:space="preserve" width="1500" height="57" data-version="2" data-id="lg_x9sjVkTmqhxgdKR9GI" viewBox="0 0 566 57" x="0" y="0"><rect width="100%" height="100%" fill="transparent"></rect><path fill="#fff" d="M39.11.55q10.86 0 17.93 2.68 7.08 2.69 10.86 7.29 3.78 4.61 4.76 10.4l-26.35 6.23q.67-2.32.06-4.03-.61-1.71-2.44-2.68-1.83-.98-4.88-.98-2.87 0-4.55.79-1.67.8-2.37 1.99-.71 1.19-.71 2.53 0 .97.43 1.86.43.88 1.34 1.61.92.74 2.38 1.16 1.47.43 3.48.43 3.11 0 4.82-.7 1.71-.7 2.44-1.98-.98 3.6-1.95 7.26-.98 3.66-1.99 7.35-1 3.69-1.98 7.29-1.65.3-3.2.45-1.56.16-3.69.16-4.64 0-8.51-.86-3.88-.85-6.99-2.41-3.11-1.55-5.46-3.75-2.34-2.2-3.9-4.91t-2.35-5.86q-.79-3.14-.79-6.55 0-2.81.58-5.46.58-2.66 1.83-5.13 1.25-2.47 3.2-4.63 1.95-2.17 4.61-3.91 2.65-1.74 6.13-3.02 3.47-1.28 7.77-1.95 4.3-.67 9.49-.67m7.2 47.58V27.15h25.86v20.98Z"></path><rect width="67.16" height="49.11" x="-33.58" y="-24.55" fill="none" rx="0" ry="0" transform="translate(39.58 25.6)"></rect><path fill="#fff" d="M101.82 49.96q-3.78 0-7.32-.55-3.54-.55-6.59-1.68-3.05-1.12-5.55-2.83t-4.27-4q-1.77-2.29-2.75-5.18-.97-2.9-.97-6.44 0-4.15 1.37-7.47 1.37-3.33 3.9-5.83 2.54-2.5 5.95-4.18 3.42-1.67 7.54-2.5 4.11-.82 8.69-.82 5.73 0 10.7 1.31 4.97 1.31 8.73 3.91 3.75 2.59 5.88 6.49 2.14 3.91 2.14 9.09 0 5.19-2.14 9.06-2.13 3.87-5.88 6.47-3.76 2.59-8.73 3.87-4.97 1.28-10.7 1.28m.06-16.16q3.78 0 5.37-1.47 1.58-1.46 1.58-3.17 0-.79-.36-1.59-.37-.79-1.16-1.46-.8-.67-2.14-1.07-1.34-.39-3.29-.39t-3.33.39q-1.37.4-2.19 1.07-.83.67-1.19 1.46-.37.8-.37 1.65 0 .85.37 1.68.36.82 1.22 1.46.85.64 2.19 1.04 1.35.4 3.3.4"></path><rect width="54.9" height="41.48" x="-27.45" y="-20.74" fill="none" rx="0" ry="0" transform="translate(102.32 29.72)"></rect><path fill="#fff" d="M164.1.55q10.86 0 17.93 2.68 7.08 2.69 10.86 7.29 3.78 4.61 4.76 10.4l-26.35 6.23q.67-2.32.06-4.03-.61-1.71-2.44-2.68-1.83-.98-4.88-.98-2.87 0-4.55.79-1.67.8-2.38 1.99-.7 1.19-.7 2.53 0 .97.43 1.86.43.88 1.34 1.61.92.74 2.38 1.16 1.46.43 3.48.43 3.11 0 4.82-.7 1.7-.7 2.44-1.98-.98 3.6-1.96 7.26-.97 3.66-1.98 7.35-1 3.69-1.98 7.29-1.65.3-3.2.45-1.56.16-3.69.16-4.64 0-8.51-.86-3.88-.85-6.99-2.41-3.11-1.55-5.46-3.75t-3.9-4.91q-1.56-2.71-2.35-5.86-.79-3.14-.79-6.55 0-2.81.58-5.46.58-2.66 1.83-5.13 1.25-2.47 3.2-4.63 1.95-2.17 4.61-3.91 2.65-1.74 6.13-3.02 3.47-1.28 7.77-1.95 4.3-.67 9.49-.67m7.2 47.58V27.15h25.86v20.98Z"></path><rect width="67.16" height="49.11" x="-33.58" y="-24.55" fill="none" rx="0" ry="0" transform="translate(164.57 25.6)"></rect><path fill="#fff" d="M226.81 49.96q-3.79 0-7.32-.55-3.54-.55-6.59-1.68-3.05-1.12-5.55-2.83t-4.27-4q-1.77-2.29-2.75-5.18-.97-2.9-.97-6.44 0-4.15 1.37-7.47 1.37-3.33 3.9-5.83t5.95-4.18q3.42-1.67 7.53-2.5 4.12-.82 8.7-.82 5.73 0 10.7 1.31 4.97 1.31 8.73 3.91 3.75 2.59 5.88 6.49 2.14 3.91 2.14 9.09 0 5.19-2.14 9.06-2.13 3.87-5.88 6.47-3.76 2.59-8.73 3.87-4.97 1.28-10.7 1.28m.06-16.16q3.78 0 5.37-1.47 1.58-1.46 1.58-3.17 0-.79-.36-1.59-.37-.79-1.16-1.46-.8-.67-2.14-1.07-1.34-.39-3.29-.39t-3.33.39q-1.37.4-2.19 1.07-.83.67-1.19 1.46-.37.8-.37 1.65 0 .85.37 1.68.36.82 1.22 1.46.85.64 2.19 1.04 1.35.4 3.3.4"></path><rect width="54.9" height="41.48" x="-27.45" y="-20.74" fill="none" rx="0" ry="0" transform="translate(227.31 29.72)"></rect><path fill="#fff" d="M287.93 20.56q9.15 0 15.31.79t9.82 2.47q3.66 1.68 5.25 4.27 1.58 2.59 1.58 6.13 0 3.85-2.47 6.8-2.47 2.96-6.89 4.94-4.42 1.99-10.25 2.99-5.82 1.01-12.53 1.01-7.45 0-13.55-1.1-6.1-1.1-10.37-3.38-4.27-2.29-6.37-5.89-2.11-3.6-1.68-8.6l26.05-1.77q-.49 1.83.27 3.05.77 1.22 2.41 1.83 1.65.61 3.66.61 1.22 0 2.23-.18 1.01-.19 1.8-.55.79-.37 1.22-.95.43-.58.43-1.31 0-1.46-1.5-1.89-1.49-.43-4.36-.43h-1.53q-9.02 0-15-.94-5.98-.95-9.46-2.66-3.47-1.7-4.94-4.05-1.46-2.35-1.46-5.28 0-3.11 1.65-5.64 1.64-2.53 4.66-4.45 3.02-1.93 7.08-3.21 4.05-1.28 8.9-1.95 4.85-.67 10.16-.67 7.5 0 13.45 1.34 5.95 1.34 10.01 3.85 4.05 2.5 5.82 5.97 1.77 3.48.85 7.81l-25.19 1.16q.67-1.77-.06-2.9t-2.29-1.64q-1.55-.52-3.5-.52-1.22 0-2.2.21-.98.21-1.68.61t-1.1.95q-.39.55-.39 1.16 0 .73.49 1.18.48.46 1.49.65 1.01.18 2.65.18h1.19z"></path><rect width="64.34" height="49.41" x="-32.17" y="-24.7" fill="none" rx="0" ry="0" transform="translate(288.22 25.75)"></rect><path fill="#fff" d="M348.81 34.34q3.23 0 5-1.15 1.77-1.16 1.83-3.18l18.85 6.16q-1.1 3.85-4.67 6.99t-9 4.97q-5.43 1.83-12.14 1.83-5.73 0-10.7-1.28-4.97-1.28-8.72-3.87-3.76-2.6-5.89-6.5-2.14-3.9-2.14-9.09 0-5.18 2.14-9.09 2.13-3.9 5.89-6.5 3.75-2.59 8.75-3.87 5-1.28 10.67-1.28 5.8 0 10.65 1.28 4.85 1.28 8.36 3.94 3.5 2.65 5.43 6.71 1.92 4.05 1.92 9.6h-33.31v.06q0 .92.49 1.71.49.8 1.37 1.37.89.58 2.2.89 1.31.3 3.02.3m-.13-10.43q-2.98 0-4.94 1.07-1.95 1.07-1.95 3.02v.12h13.67q.06 0 .06-.03V28q0-.98-.52-1.74t-1.44-1.28q-.91-.52-2.16-.79-1.25-.28-2.72-.28"></path><rect width="53.81" height="41.48" x="-26.91" y="-20.74" fill="none" rx="0" ry="0" transform="translate(348.63 29.72)"></rect><path fill="#fff" d="M404.32 48.13V28.85q0-1.76-.89-2.5-.88-.73-2.1-.79-1.22-.06-2.23.31-1.01.36-1.25.73l4.88-15.68q2.2-.98 4.7-1.46 2.5-.49 4.94-.49 3.41 0 6.37 1.1 2.96 1.09 4.82 3.47 1.86 2.38 1.86 6.35v28.24Zm-27.58 0V10.31h21.11v37.82Z"></path><rect width="48.68" height="39.16" x="-24.34" y="-19.58" fill="none" rx="0" ry="0" transform="translate(401.58 29.05)"></rect><path fill="#fff" d="M484.53 29.16q0 4.57-1.89 8.23t-5.09 6.29q-3.21 2.62-7.23 3.99-4.03 1.38-8.36 1.38-2.19 0-4.54-.4t-4.52-1.16q-2.16-.76-3.87-1.86h-.09q-.03 0-.03.03v9.79H427.8V10.31h21.11v18.97q0 1.16.61 2.01.61.86 1.64 1.41 1.04.55 2.35.82 1.31.28 2.66.28 2.38 0 3.93-.68 1.56-.67 2.32-1.7.76-1.04.76-2.14 0-.97-.43-1.8-.42-.82-1.28-1.46-.85-.64-2.19-1.01-1.34-.36-3.11-.36-2.57 0-4.55.91-1.98.92-2.65 2.99l4.88-18.24q2.01-.49 3.96-.7 1.96-.21 3.85-.21 3.72 0 7.16.85 3.45.85 6.29 2.5 2.83 1.65 4.97 4.06 2.13 2.41 3.29 5.49 1.16 3.08 1.16 6.86"></path><rect width="56.73" height="46.05" x="-28.36" y="-23.02" fill="none" rx="0" ry="0" transform="translate(456.67 32.92)"></rect><path fill="#fff" d="M489.35 12.51v14.58q2.75-1.77 6.41-2.69 3.66-.91 7.25-.91 2.32 0 4.43.42 2.1.43 3.72 1.31 1.61.89 2.56 2.26.95 1.37.95 3.27v.54q-.92-1.22-2.35-2.19-1.44-.98-3.24-1.65-1.8-.67-3.81-1.01-2.01-.33-4.15-.33-3.29 0-5.85.64-2.56.64-4.42 1.8-1.87 1.16-3.09 2.68-1.22 1.53-1.83 3.24-.61 1.7-.61 3.47 0 2.93 1.22 5.13 1.22 2.19 3.33 3.66 2.1 1.46 4.76 2.22 2.65.77 5.52.77 2.38 0 4.79-.46t4.6-1.56q1.28-2.99 2.59-5.97 1.32-2.99 2.6-5.98-.74 1.77-2.14 2.19-1.4.43-2.5.43-2.26 0-3.48-.95-1.22-.94-1.22-2.1 0-1.16 1.19-2.07 1.19-.92 3.51-.92 1.04 0 2.07.28 1.04.27 1.77.94.74.67.74 1.77v12.81h21.35V24.46q0-4.02-2.2-7.01t-5.95-5q-3.75-2.02-8.51-2.99-4.76-.98-9.88-.98-5.25 0-10.46 1.01-5.22 1-9.67 3.02"></path><rect width="50.7" height="41.24" x="-25.35" y="-20.62" fill="none" rx="0" ry="0" transform="translate(511.17 29.6)"></rect><path fill="#fff" d="M538.39 48.13V26.84h21.11v21.29Zm0-21.29V10.31h21.11v12.08l-.03.03-.03.03q-5.25 1.1-10.52 2.2-5.28 1.09-10.53 2.19"></path><rect width="21.11" height="37.82" x="-10.55" y="-18.91" fill="none" rx="0" ry="0" transform="translate(549.45 29.72)"></rect></svg></svg>